<?xml version="1.0" encoding="UTF-8" standalone="no" ?>
<!DOCTYPE svg PUBLIC "-//W3C//DTD SVG 1.1//EN" "http://www.w3.org/Graphics/SVG/1.1/DTD/svg11.dtd">
<svg xmlns="http://www.w3.org/2000/svg" xmlns:xlink="http://www.w3.org/1999/xlink" version="1.1" width="1080" height="1080" viewBox="0 0 1080 1080" xml:space="preserve">
<desc>Created with Fabric.js 5.2.4</desc>
<defs>
</defs>
<g transform="matrix(1 0 0 1 540 540)" id="e74e2ef0-16a6-4c08-98fa-303a8e55f8ac"  >
<rect style="stroke: none; stroke-width: 1; stroke-dasharray: none; stroke-linecap: butt; stroke-dashoffset: 0; stroke-linejoin: miter; stroke-miterlimit: 4; fill: rgb(255,255,255); fill-rule: nonzero; opacity: 1; visibility: hidden;" vector-effect="non-scaling-stroke"  x="-540" y="-540" rx="0" ry="0" width="1080" height="1080" />
</g>
<g transform="matrix(1 0 0 1 540 540)" id="0a5a1a0f-595b-48a6-9632-9da31a4cfd9e"  >
</g>
<g transform="matrix(1 0 0 1 540 523.89)"  >
<g style="opacity: 0.13;" vector-effect="non-scaling-stroke"   >
		<g transform="matrix(1.56 0 0 1.56 -216.23 220.34)"  >
<path style="stroke: none; stroke-width: 1; stroke-dasharray: none; stroke-linecap: butt; stroke-dashoffset: 0; stroke-linejoin: miter; stroke-miterlimit: 4; fill: rgb(0,0,0); fill-opacity: 0.98; fill-rule: nonzero; opacity: 1;" vector-effect="non-scaling-stroke"  transform=" translate(-116.33, -398.28)" d="M 204.854 309.75 L 205.52200000000002 311.498 C 205.73000000000002 312.062 206.044 312.818 206.31300000000002 313.613 L 207.28400000000002 316.408 C 207.66400000000002 317.47700000000003 207.973 318.557 208.37800000000001 319.808 C 208.764 321.042 209.221 322.423 209.579 323.781 L 210.829 328.25100000000003 C 211.241 329.809 211.58700000000002 331.37300000000005 212.00400000000002 333.07700000000006 C 213.79050411842704 340.43454312549613 215.05960799077707 347.9081548182239 215.80200000000002 355.4429999999999 C 216.228 359.45300000000003 216.40900000000002 363.45000000000005 216.49800000000002 367.56000000000006 C 216.50400000000002 371.5880000000001 216.407 375.71900000000005 216.03000000000003 379.7540000000001 C 215.66005467836 383.76680060883984 215.05063508675258 387.7539074163974 214.20500000000004 391.6940000000001 C 213.3568019355068 395.5610373830104 212.23702589690782 399.3634639849853 210.85400000000004 403.0730000000001 C 208.09700000000004 410.4270000000001 204.23000000000005 417.22300000000007 199.20700000000005 423.2300000000001 C 196.72200000000004 426.2610000000001 193.81800000000004 428.96400000000006 190.94100000000006 431.7630000000001 C 188.02300000000005 434.5210000000001 185.03700000000006 437.2800000000001 181.92000000000007 439.95400000000006 C 175.6170736098904 445.4236170997463 169.0317008338035 450.55899953981407 162.19100000000006 455.33900000000006 C 155.2830000000001 460.19700000000006 148.01700000000008 464.69700000000006 140.56400000000008 468.8260000000001 C 136.83044531885562 470.87396259667406 133.04696224844184 472.8295568689907 129.21700000000004 474.69100000000014 C 125.3993578081978 476.5239806713157 121.53754093539203 478.26349877055833 117.63500000000008 479.90800000000013 C 109.85100000000007 483.1550000000001 102.00800000000008 485.97400000000005 94.23200000000008 488.3090000000001 C 86.72502173165766 490.57659868299277 79.11077204602223 492.47256854773497 71.41700000000006 493.99 C 56.70300000000009 496.9240000000001 43.198000000000086 498.12700000000007 33.16000000000009 498.38400000000007 L 29.57100000000009 498.4460000000001 L 26.34800000000009 498.4430000000001 L 21.13000000000009 498.3040000000001 L 17.785000000000093 498.10800000000006 L 16.603000000000094 498.0060000000001 L 16.501000000000094 496.82400000000007 L 16.305000000000092 493.47900000000004 L 16.166000000000093 488.261 L 16.163000000000093 485.038 L 16.225000000000094 481.449 C 16.482000000000095 471.411 17.684000000000093 457.906 20.619000000000092 443.192 C 22.13679166742174 435.4983989782699 24.0324193396136 427.88418324921037 26.299000000000042 420.37700000000007 C 28.634000000000093 412.601 31.45300000000009 404.757 34.70000000000009 396.974 C 36.34468952806683 393.0715411352333 38.084205570255484 389.20972882918977 39.917000000000044 385.3920000000001 C 41.777000000000086 381.576 43.72700000000009 377.781 45.78200000000009 374.045 C 49.91100000000009 366.59200000000004 54.41100000000009 359.326 59.26900000000009 352.418 C 64.04868287500983 345.577064634381 69.18407804569907 338.99167553314425 74.65400000000011 332.6890000000001 C 77.3280000000001 329.572 80.0860000000001 326.58500000000004 82.8450000000001 323.668 C 85.6440000000001 320.791 88.3470000000001 317.887 91.3780000000001 315.402 C 97.3860000000001 310.37899999999996 104.1810000000001 306.512 111.5350000000001 303.755 C 115.24468790962116 302.3724300156434 119.04708205996485 301.25266353372035 122.91400000000003 300.404 C 126.85409258360279 299.55836491324743 130.84119939116033 298.94894532164005 134.85400000000007 298.579 C 138.8890000000001 298.202 143.0210000000001 298.105 147.0480000000001 298.111 C 151.1580000000001 298.199 155.15400000000008 298.381 159.16500000000008 298.807 C 166.69991091511633 299.5489014096666 174.17355677465082 300.8180110839272 181.53099999999998 302.605 C 183.23400000000007 303.021 184.79800000000006 303.368 186.35700000000006 303.78000000000003 L 190.82700000000006 305.03000000000003 C 192.18500000000006 305.389 193.56700000000006 305.845 194.80000000000007 306.23100000000005 C 196.05200000000008 306.63500000000005 197.13100000000006 306.94500000000005 198.20000000000007 307.32500000000005 L 200.99500000000006 308.29600000000005 C 201.79000000000005 308.56500000000005 202.54600000000005 308.8790000000001 203.11000000000007 309.08700000000005 C 204.25900000000007 309.52200000000005 204.85400000000007 309.75000000000006 204.85400000000007 309.75000000000006 z" stroke-linecap="round" />
</g>
		<g transform="matrix(1.56 0 0 1.56 -255.48 -19.71)"  >
<path style="stroke: none; stroke-width: 1; stroke-dasharray: none; stroke-linecap: butt; stroke-dashoffset: 0; stroke-linejoin: miter; stroke-miterlimit: 4; fill: rgb(0,0,0); fill-opacity: 0.98; fill-rule: nonzero; opacity: 1;" vector-effect="non-scaling-stroke"  transform=" translate(-91.19, -244.59)" d="M 76.86 181.752 L 4.346 254.266 C -0.6659999999999995 259.27799999999996 2.8840000000000003 267.848 9.972000000000001 267.848 L 70.917 267.848 C 73.027 267.848 75.051 268.68600000000004 76.543 270.178 L 116.11500000000001 309.75 L 180.38600000000002 179.422 L 82.48600000000002 179.422 C 80.37579773285437 179.42142319633012 78.35189599625436 180.2596192585907 76.86000000000001 181.752 z" stroke-linecap="round" />
</g>
		<g transform="matrix(1.56 0 0 1.56 41.67 250.42)"  >
<path style="stroke: none; stroke-width: 1; stroke-dasharray: none; stroke-linecap: butt; stroke-dashoffset: 0; stroke-linejoin: miter; stroke-miterlimit: 4; fill: rgb(0,0,0); fill-opacity: 0.98; fill-rule: nonzero; opacity: 1;" vector-effect="non-scaling-stroke"  transform=" translate(-281.33, -417.51)" d="M 216.161 392.592 L 255.733 432.164 C 257.2249148533661 433.65620728486414 258.0630272446675 435.67990699021254 258.063 437.78999999999996 L 258.063 498.73499999999996 C 258.063 505.823 266.633 509.37299999999993 271.645 504.36099999999993 L 344.159 431.8469999999999 C 345.6509148533661 430.3547927151358 346.4890272446675 428.33109300978737 346.489 426.22099999999995 L 346.489 328.3209999999999 L 216.16099999999997 392.5919999999999 z" stroke-linecap="round" />
</g>
		<g transform="matrix(1.56 0 0 1.56 83.1 -79.49)"  >
<path style="stroke: none; stroke-width: 1; stroke-dasharray: none; stroke-linecap: butt; stroke-dashoffset: 0; stroke-linejoin: miter; stroke-miterlimit: 4; fill: rgb(0,0,0); fill-opacity: 0.98; fill-rule: nonzero; opacity: 1;" vector-effect="non-scaling-stroke"  transform=" translate(-308.06, -206.54)" d="M 505.647 17.875 L 505.724 18.512 C 505.771 18.931 505.863 19.577 505.929 20.374000000000002 C 506.05999999999995 21.967000000000002 506.35699999999997 24.435000000000002 506.498 27.407000000000004 C 506.95 33.521 507.25399999999996 42.128 507.041 52.483000000000004 C 506.834 62.84400000000001 506.104 74.947 504.522 88.08500000000001 C 504.168 91.411 503.663 94.70400000000001 503.175 98.126 C 502.72200000000004 101.583 502.077 104.96000000000001 501.488 108.49900000000001 C 500.278 115.546 498.768 122.71700000000001 497.025 130.032 C 493.39362811198316 145.213550070898 488.7822999771013 160.14383139250697 483.2199999999999 174.729 C 477.48199999999997 189.75 470.59599999999995 204.75400000000002 462.525 219.329 C 454.44199999999995 233.892 445.24699999999996 248.097 434.96999999999997 261.599 C 424.707 275.114 413.376 287.93899999999996 401.219 299.937 C 389.062 311.93600000000004 376.09499999999997 323.124 362.471 333.278 C 359.064 335.815 355.637 338.31 352.133 340.697 C 348.667 343.123 345.126 345.443 341.597 347.741 C 334.505 352.303 327.263 356.572 319.94599999999997 360.578 C 305.5413815346653 368.4585043757099 290.6172470024617 375.3497533148227 275.27699999999993 381.20399999999995 C 260.7004517351712 386.7533802881091 245.7897701973999 391.38182363436914 230.63299999999998 395.06199999999995 C 223.33399999999997 396.82099999999997 216.201 398.36899999999997 209.166 399.59 L 203.987 400.52299999999997 C 202.271 400.81699999999995 200.53 401.05899999999997 198.84 401.32399999999996 L 193.82500000000002 402.08899999999994 L 188.85100000000003 402.7219999999999 C 175.78400000000002 404.37499999999994 163.76100000000002 405.18499999999995 153.47600000000003 405.4679999999999 C 143.20200000000003 405.7619999999999 134.64400000000003 405.5079999999999 128.60000000000002 405.1249999999999 C 125.65800000000002 405.0139999999999 123.20600000000002 404.7319999999999 121.63200000000002 404.62099999999987 C 120.84300000000002 404.5629999999999 120.20200000000001 404.4759999999999 119.78800000000003 404.43399999999986 L 119.15700000000002 404.36399999999986 C 114.37500000000003 403.83099999999985 110.74800000000002 400.03499999999985 110.23800000000003 395.4449999999999 L 110.16800000000003 394.8149999999999 C 110.12600000000003 394.4009999999999 110.03900000000003 393.7599999999999 109.98100000000004 392.9709999999999 C 109.87000000000003 391.3969999999999 109.58800000000004 388.9459999999999 109.47700000000003 386.0029999999999 C 109.09500000000003 379.9589999999999 108.84100000000004 371.4019999999999 109.13400000000003 361.1269999999999 C 109.41700000000003 350.84199999999987 110.22700000000003 338.8189999999999 111.88000000000002 325.7519999999999 L 112.51300000000002 320.7779999999999 L 113.27800000000002 315.7629999999999 C 113.54300000000002 314.0729999999999 113.78600000000002 312.3329999999999 114.07900000000002 310.61599999999993 L 115.01200000000003 305.43699999999995 C 116.23300000000003 298.40199999999993 117.78100000000003 291.26899999999995 119.54000000000003 283.96999999999997 C 123.21911415239684 268.81293631622356 127.84757801798878 253.90218867475397 133.39800000000002 239.32600000000002 C 139.25308375650667 223.98610551473618 146.14430681303983 209.06202703552165 154.024 194.65700000000007 C 158.03100000000003 187.34099999999998 162.30000000000004 180.09799999999998 166.86100000000002 173.00599999999997 C 169.15900000000002 169.47699999999998 171.479 165.93599999999998 173.90500000000003 162.46999999999997 C 176.29200000000003 158.96499999999997 178.78700000000003 155.53899999999996 181.32400000000004 152.13199999999998 C 191.47800000000004 138.50799999999998 202.66600000000005 125.53999999999998 214.66500000000005 113.38399999999999 C 226.66300000000004 101.22699999999999 239.48800000000006 89.89599999999999 253.00300000000004 79.63299999999998 C 266.50500000000005 69.35699999999999 280.71000000000004 60.16099999999998 295.273 52.07799999999998 C 309.848 44.006999999999984 324.853 37.12099999999998 339.87300000000005 31.38299999999998 C 354.45816860749306 25.820700022898595 369.388449929102 21.209371888016854 384.57000000000005 17.57800000000003 C 391.88500000000005 15.834999999999981 399.05600000000004 14.324999999999982 406.10300000000007 13.11499999999998 C 409.64200000000005 12.52599999999998 413.01900000000006 11.88099999999998 416.47600000000006 11.427999999999981 C 419.8980000000001 10.939999999999982 423.19000000000005 10.433999999999982 426.51700000000005 10.080999999999982 C 439.65500000000003 8.498999999999981 451.75800000000004 7.768999999999982 462.119 7.561999999999982 C 472.47400000000005 7.3489999999999815 481.081 7.6519999999999815 487.19500000000005 8.10499999999998 C 490.16700000000003 8.245999999999981 492.63500000000005 8.543999999999981 494.22800000000007 8.673999999999982 C 495.0250000000001 8.739999999999982 495.67100000000005 8.830999999999982 496.0900000000001 8.878999999999982 L 496.7270000000001 8.955999999999982 C 501.4960000000001 9.530999999999981 505.0970000000001 13.309999999999981 505.6470000000001 17.874999999999982 z" stroke-linecap="round" />
</g>
		<g transform="matrix(1.56 0 0 1.56 -151.97 156.14)"  >
<path style="stroke: none; stroke-width: 1; stroke-dasharray: none; stroke-linecap: butt; stroke-dashoffset: 0; stroke-linejoin: miter; stroke-miterlimit: 4; fill: rgb(0,0,0); fill-opacity: 0.98; fill-rule: nonzero; opacity: 1;" vector-effect="non-scaling-stroke"  transform=" translate(-157.43, -357.17)" d="M 243.106 271.497 L 243.689 273.074 C 244.01399999999998 274.055 244.452 275.466 244.754 277.038 C 245.47 280.293 245.707 284.255 244.41299999999998 287.701 C 243.77499999999998 289.43300000000005 242.59499999999997 290.877 241.48399999999998 292.62300000000005 L 237.79099999999997 298.17800000000005 L 228.92599999999996 311.49000000000007 C 225.4054276806434 316.7061690389559 221.85470156985193 321.90192268981036 218.2739999999997 327.07699999999994 C 214.28337078496511 332.8345072554111 210.24489761830188 338.5587054574696 206.15899999999974 344.2490000000002 L 199.64899999999997 353.2080000000001 L 192.88499999999996 362.29300000000006 C 188.29599999999996 368.3690000000001 183.59999999999997 374.50800000000004 178.82499999999996 380.56700000000006 C 174.0964453874244 386.6042758487214 169.30821053806926 392.59456965566335 164.46100000000004 398.5370000000001 C 159.67999999999995 404.422 154.99199999999996 410.22900000000004 150.37799999999996 415.77200000000005 L 143.60899999999995 423.96400000000006 C 141.36699999999996 426.61000000000007 139.32799999999995 429.35300000000007 136.95999999999995 431.6410000000001 C 134.60699999999994 433.9430000000001 131.89199999999994 435.75700000000006 128.77199999999996 437.01700000000005 C 125.67899999999996 438.30400000000003 122.29299999999996 439.15000000000003 119.01899999999996 439.94000000000005 C 112.8474252372904 441.4028581150579 106.60839822737461 442.5648956678007 100.32399999999998 443.4220000000001 C 97.41999999999996 443.8190000000001 94.64299999999996 444.1310000000001 92.01999999999995 444.3660000000001 C 89.41099999999996 444.6140000000001 86.88699999999996 444.7130000000001 84.67499999999995 444.87200000000007 C 82.44599999999996 445.0130000000001 80.31799999999996 445.0010000000001 78.53999999999995 445.0640000000001 C 76.73499999999994 445.1000000000001 75.10999999999994 445.04100000000005 73.83799999999995 445.0390000000001 C 72.53899999999994 445.0100000000001 71.50099999999995 444.9450000000001 70.82199999999995 444.9220000000001 L 69.75599999999994 444.8500000000001 L 69.68399999999994 443.7840000000001 C 69.66099999999994 443.10500000000013 69.59599999999995 442.0660000000001 69.56699999999994 440.7680000000001 C 69.56499999999994 439.4960000000001 69.50599999999993 437.87200000000007 69.54199999999993 436.0660000000001 C 69.60399999999993 434.2870000000001 69.59299999999993 432.1600000000001 69.73399999999992 429.9310000000001 C 69.89199999999992 427.7190000000001 69.99199999999992 425.1950000000001 70.23999999999992 422.58600000000007 C 70.47399999999992 419.96400000000006 70.78599999999993 417.1860000000001 71.18399999999993 414.2820000000001 C 72.04110433219928 407.99760177262544 73.2031418849421 401.75857476270966 74.66599999999993 395.5870000000001 C 75.45599999999993 392.3140000000001 76.30199999999992 388.9280000000001 77.58899999999993 385.8340000000001 C 78.84899999999993 382.71300000000014 80.66299999999993 379.99900000000014 82.96499999999993 377.64600000000013 C 85.25299999999993 375.2790000000001 87.99599999999994 373.2400000000001 90.64299999999993 370.9980000000001 L 98.83499999999992 364.2290000000001 C 104.37799999999993 359.6150000000001 110.18499999999992 354.9260000000001 116.06999999999992 350.1460000000001 C 121.94499999999992 345.35600000000005 127.96299999999992 340.5390000000001 134.0399999999999 335.7820000000001 C 140.0989999999999 331.0060000000001 146.23799999999991 326.3110000000001 152.3139999999999 321.7220000000001 L 161.39899999999992 314.9580000000001 L 170.35799999999992 308.4480000000001 C 176.048531595856 304.3624354446381 181.77272702783367 300.32396423229176 187.52999999999983 296.3330000000001 C 193.02999999999992 292.5220000000001 198.26899999999992 288.9580000000001 203.1169999999999 285.6810000000001 L 216.42899999999992 276.8160000000001 L 221.98399999999992 273.1230000000001 C 223.72899999999993 272.0120000000001 225.17299999999992 270.8320000000001 226.90599999999992 270.19400000000013 C 230.35199999999992 268.90000000000015 234.3139999999999 269.1370000000001 237.56899999999993 269.8530000000001 C 239.14099999999993 270.15500000000014 240.55199999999994 270.59300000000013 241.53299999999993 270.9180000000001 L 243.10599999999994 271.4970000000001 z" stroke-linecap="round" />
</g>
		<g transform="matrix(1.56 0 0 1.56 131.42 -127.24)"  >
<path style="stroke: none; stroke-width: 1; stroke-dasharray: none; stroke-linecap: butt; stroke-dashoffset: 0; stroke-linejoin: miter; stroke-miterlimit: 4; fill: rgb(0,0,0); fill-opacity: 0.98; fill-rule: nonzero; opacity: 1;" vector-effect="non-scaling-stroke"  transform=" translate(-338.8, -175.8)" d="M 362.113 206.66 C 362.113 236.577 337.86 260.83 307.943 260.83 C 278.02599999999995 260.83 253.77299999999997 236.577 253.77299999999997 206.65999999999997 C 253.77299999999997 176.74299999999994 278.02599999999995 152.48999999999995 307.943 152.48999999999995 C 337.86 152.48999999999995 362.113 176.74299999999994 362.113 206.65999999999997 z M 389.342 90.779 C 370.298 90.779 354.86 106.217 354.86 125.261 C 354.86 144.305 370.298 159.743 389.342 159.743 C 408.38599999999997 159.743 423.82399999999996 144.305 423.82399999999996 125.261 C 423.82399999999996 106.21699999999998 408.38599999999997 90.779 389.342 90.779 z" stroke-linecap="round" />
</g>
</g>
</g>
<g transform="matrix(1.31 0 0 1.31 517.93 968.71)" style="" id="6f284009-65e6-43e9-8444-12078de19aff"  >
		<rect opacity="0" fill="rgb(0,0,0)" x="-432" y="-71.75" width="864" height="143.51"></rect>
		<text xml:space="preserve" font-family="Raleway" font-size="127" font-style="normal" font-weight="900" style="stroke: none; stroke-width: 1; stroke-dasharray: none; stroke-linecap: butt; stroke-dashoffset: 0; stroke-linejoin: miter; stroke-miterlimit: 4; fill: rgb(77,74,84); fill-rule: nonzero; opacity: 1; white-space: pre;" ><tspan x="-371.28" y="39.9" >C</tspan><tspan x="-241.11" y="39.9" >O</tspan><tspan x="-100.14" y="39.9" >M</tspan><tspan x="52.13" y="39.9" >E</tspan><tspan x="171.77" y="39.9" >T</tspan><tspan x="286.58" y="39.9" >A</tspan></text>
</g>
<g transform="matrix(1 0 0 1 508.57 508.57)"  >
<g style="" vector-effect="non-scaling-stroke"   >
		<g transform="matrix(1.56 0 0 1.56 -216.23 220.34)"  >
<path style="stroke: none; stroke-width: 1; stroke-dasharray: none; stroke-linecap: butt; stroke-dashoffset: 0; stroke-linejoin: miter; stroke-miterlimit: 4; fill: rgb(255,182,54); fill-rule: nonzero; opacity: 1;" vector-effect="non-scaling-stroke"  transform=" translate(-116.33, -398.28)" d="M 204.854 309.75 L 205.52200000000002 311.498 C 205.73000000000002 312.062 206.044 312.818 206.31300000000002 313.613 L 207.28400000000002 316.408 C 207.66400000000002 317.47700000000003 207.973 318.557 208.37800000000001 319.808 C 208.764 321.042 209.221 322.423 209.579 323.781 L 210.829 328.25100000000003 C 211.241 329.809 211.58700000000002 331.37300000000005 212.00400000000002 333.07700000000006 C 213.79050411842704 340.43454312549613 215.05960799077707 347.9081548182239 215.80200000000002 355.4429999999999 C 216.228 359.45300000000003 216.40900000000002 363.45000000000005 216.49800000000002 367.56000000000006 C 216.50400000000002 371.5880000000001 216.407 375.71900000000005 216.03000000000003 379.7540000000001 C 215.66005467836 383.76680060883984 215.05063508675258 387.7539074163974 214.20500000000004 391.6940000000001 C 213.3568019355068 395.5610373830104 212.23702589690782 399.3634639849853 210.85400000000004 403.0730000000001 C 208.09700000000004 410.4270000000001 204.23000000000005 417.22300000000007 199.20700000000005 423.2300000000001 C 196.72200000000004 426.2610000000001 193.81800000000004 428.96400000000006 190.94100000000006 431.7630000000001 C 188.02300000000005 434.5210000000001 185.03700000000006 437.2800000000001 181.92000000000007 439.95400000000006 C 175.6170736098904 445.4236170997463 169.0317008338035 450.55899953981407 162.19100000000006 455.33900000000006 C 155.2830000000001 460.19700000000006 148.01700000000008 464.69700000000006 140.56400000000008 468.8260000000001 C 136.83044531885562 470.87396259667406 133.04696224844184 472.8295568689907 129.21700000000004 474.69100000000014 C 125.3993578081978 476.5239806713157 121.53754093539203 478.26349877055833 117.63500000000008 479.90800000000013 C 109.85100000000007 483.1550000000001 102.00800000000008 485.97400000000005 94.23200000000008 488.3090000000001 C 86.72502173165766 490.57659868299277 79.11077204602223 492.47256854773497 71.41700000000006 493.99 C 56.70300000000009 496.9240000000001 43.198000000000086 498.12700000000007 33.16000000000009 498.38400000000007 L 29.57100000000009 498.4460000000001 L 26.34800000000009 498.4430000000001 L 21.13000000000009 498.3040000000001 L 17.785000000000093 498.10800000000006 L 16.603000000000094 498.0060000000001 L 16.501000000000094 496.82400000000007 L 16.305000000000092 493.47900000000004 L 16.166000000000093 488.261 L 16.163000000000093 485.038 L 16.225000000000094 481.449 C 16.482000000000095 471.411 17.684000000000093 457.906 20.619000000000092 443.192 C 22.13679166742174 435.4983989782699 24.0324193396136 427.88418324921037 26.299000000000042 420.37700000000007 C 28.634000000000093 412.601 31.45300000000009 404.757 34.70000000000009 396.974 C 36.34468952806683 393.0715411352333 38.084205570255484 389.20972882918977 39.917000000000044 385.3920000000001 C 41.777000000000086 381.576 43.72700000000009 377.781 45.78200000000009 374.045 C 49.91100000000009 366.59200000000004 54.41100000000009 359.326 59.26900000000009 352.418 C 64.04868287500983 345.577064634381 69.18407804569907 338.99167553314425 74.65400000000011 332.6890000000001 C 77.3280000000001 329.572 80.0860000000001 326.58500000000004 82.8450000000001 323.668 C 85.6440000000001 320.791 88.3470000000001 317.887 91.3780000000001 315.402 C 97.3860000000001 310.37899999999996 104.1810000000001 306.512 111.5350000000001 303.755 C 115.24468790962116 302.3724300156434 119.04708205996485 301.25266353372035 122.91400000000003 300.404 C 126.85409258360279 299.55836491324743 130.84119939116033 298.94894532164005 134.85400000000007 298.579 C 138.8890000000001 298.202 143.0210000000001 298.105 147.0480000000001 298.111 C 151.1580000000001 298.199 155.15400000000008 298.381 159.16500000000008 298.807 C 166.69991091511633 299.5489014096666 174.17355677465082 300.8180110839272 181.53099999999998 302.605 C 183.23400000000007 303.021 184.79800000000006 303.368 186.35700000000006 303.78000000000003 L 190.82700000000006 305.03000000000003 C 192.18500000000006 305.389 193.56700000000006 305.845 194.80000000000007 306.23100000000005 C 196.05200000000008 306.63500000000005 197.13100000000006 306.94500000000005 198.20000000000007 307.32500000000005 L 200.99500000000006 308.29600000000005 C 201.79000000000005 308.56500000000005 202.54600000000005 308.8790000000001 203.11000000000007 309.08700000000005 C 204.25900000000007 309.52200000000005 204.85400000000007 309.75000000000006 204.85400000000007 309.75000000000006 z" stroke-linecap="round" />
</g>
		<g transform="matrix(1.56 0 0 1.56 -255.48 -19.71)"  >
<path style="stroke: none; stroke-width: 1; stroke-dasharray: none; stroke-linecap: butt; stroke-dashoffset: 0; stroke-linejoin: miter; stroke-miterlimit: 4; fill: rgb(255,71,62); fill-rule: nonzero; opacity: 1;" vector-effect="non-scaling-stroke"  transform=" translate(-91.19, -244.59)" d="M 76.86 181.752 L 4.346 254.266 C -0.6659999999999995 259.27799999999996 2.8840000000000003 267.848 9.972000000000001 267.848 L 70.917 267.848 C 73.027 267.848 75.051 268.68600000000004 76.543 270.178 L 116.11500000000001 309.75 L 180.38600000000002 179.422 L 82.48600000000002 179.422 C 80.37579773285437 179.42142319633012 78.35189599625436 180.2596192585907 76.86000000000001 181.752 z" stroke-linecap="round" />
</g>
		<g transform="matrix(1.56 0 0 1.56 41.67 250.42)"  >
<path style="stroke: none; stroke-width: 1; stroke-dasharray: none; stroke-linecap: butt; stroke-dashoffset: 0; stroke-linejoin: miter; stroke-miterlimit: 4; fill: rgb(255,71,62); fill-rule: nonzero; opacity: 1;" vector-effect="non-scaling-stroke"  transform=" translate(-281.33, -417.51)" d="M 216.161 392.592 L 255.733 432.164 C 257.2249148533661 433.65620728486414 258.0630272446675 435.67990699021254 258.063 437.78999999999996 L 258.063 498.73499999999996 C 258.063 505.823 266.633 509.37299999999993 271.645 504.36099999999993 L 344.159 431.8469999999999 C 345.6509148533661 430.3547927151358 346.4890272446675 428.33109300978737 346.489 426.22099999999995 L 346.489 328.3209999999999 L 216.16099999999997 392.5919999999999 z" stroke-linecap="round" />
</g>
		<g transform="matrix(1.56 0 0 1.56 83.1 -79.49)"  >
<path style="stroke: none; stroke-width: 1; stroke-dasharray: none; stroke-linecap: butt; stroke-dashoffset: 0; stroke-linejoin: miter; stroke-miterlimit: 4; fill: rgb(173,187,188); fill-rule: nonzero; opacity: 1;" vector-effect="non-scaling-stroke"  transform=" translate(-308.06, -206.54)" d="M 505.647 17.875 L 505.724 18.512 C 505.771 18.931 505.863 19.577 505.929 20.374000000000002 C 506.05999999999995 21.967000000000002 506.35699999999997 24.435000000000002 506.498 27.407000000000004 C 506.95 33.521 507.25399999999996 42.128 507.041 52.483000000000004 C 506.834 62.84400000000001 506.104 74.947 504.522 88.08500000000001 C 504.168 91.411 503.663 94.70400000000001 503.175 98.126 C 502.72200000000004 101.583 502.077 104.96000000000001 501.488 108.49900000000001 C 500.278 115.546 498.768 122.71700000000001 497.025 130.032 C 493.39362811198316 145.213550070898 488.7822999771013 160.14383139250697 483.2199999999999 174.729 C 477.48199999999997 189.75 470.59599999999995 204.75400000000002 462.525 219.329 C 454.44199999999995 233.892 445.24699999999996 248.097 434.96999999999997 261.599 C 424.707 275.114 413.376 287.93899999999996 401.219 299.937 C 389.062 311.93600000000004 376.09499999999997 323.124 362.471 333.278 C 359.064 335.815 355.637 338.31 352.133 340.697 C 348.667 343.123 345.126 345.443 341.597 347.741 C 334.505 352.303 327.263 356.572 319.94599999999997 360.578 C 305.5413815346653 368.4585043757099 290.6172470024617 375.3497533148227 275.27699999999993 381.20399999999995 C 260.7004517351712 386.7533802881091 245.7897701973999 391.38182363436914 230.63299999999998 395.06199999999995 C 223.33399999999997 396.82099999999997 216.201 398.36899999999997 209.166 399.59 L 203.987 400.52299999999997 C 202.271 400.81699999999995 200.53 401.05899999999997 198.84 401.32399999999996 L 193.82500000000002 402.08899999999994 L 188.85100000000003 402.7219999999999 C 175.78400000000002 404.37499999999994 163.76100000000002 405.18499999999995 153.47600000000003 405.4679999999999 C 143.20200000000003 405.7619999999999 134.64400000000003 405.5079999999999 128.60000000000002 405.1249999999999 C 125.65800000000002 405.0139999999999 123.20600000000002 404.7319999999999 121.63200000000002 404.62099999999987 C 120.84300000000002 404.5629999999999 120.20200000000001 404.4759999999999 119.78800000000003 404.43399999999986 L 119.15700000000002 404.36399999999986 C 114.37500000000003 403.83099999999985 110.74800000000002 400.03499999999985 110.23800000000003 395.4449999999999 L 110.16800000000003 394.8149999999999 C 110.12600000000003 394.4009999999999 110.03900000000003 393.7599999999999 109.98100000000004 392.9709999999999 C 109.87000000000003 391.3969999999999 109.58800000000004 388.9459999999999 109.47700000000003 386.0029999999999 C 109.09500000000003 379.9589999999999 108.84100000000004 371.4019999999999 109.13400000000003 361.1269999999999 C 109.41700000000003 350.84199999999987 110.22700000000003 338.8189999999999 111.88000000000002 325.7519999999999 L 112.51300000000002 320.7779999999999 L 113.27800000000002 315.7629999999999 C 113.54300000000002 314.0729999999999 113.78600000000002 312.3329999999999 114.07900000000002 310.61599999999993 L 115.01200000000003 305.43699999999995 C 116.23300000000003 298.40199999999993 117.78100000000003 291.26899999999995 119.54000000000003 283.96999999999997 C 123.21911415239684 268.81293631622356 127.84757801798878 253.90218867475397 133.39800000000002 239.32600000000002 C 139.25308375650667 223.98610551473618 146.14430681303983 209.06202703552165 154.024 194.65700000000007 C 158.03100000000003 187.34099999999998 162.30000000000004 180.09799999999998 166.86100000000002 173.00599999999997 C 169.15900000000002 169.47699999999998 171.479 165.93599999999998 173.90500000000003 162.46999999999997 C 176.29200000000003 158.96499999999997 178.78700000000003 155.53899999999996 181.32400000000004 152.13199999999998 C 191.47800000000004 138.50799999999998 202.66600000000005 125.53999999999998 214.66500000000005 113.38399999999999 C 226.66300000000004 101.22699999999999 239.48800000000006 89.89599999999999 253.00300000000004 79.63299999999998 C 266.50500000000005 69.35699999999999 280.71000000000004 60.16099999999998 295.273 52.07799999999998 C 309.848 44.006999999999984 324.853 37.12099999999998 339.87300000000005 31.38299999999998 C 354.45816860749306 25.820700022898595 369.388449929102 21.209371888016854 384.57000000000005 17.57800000000003 C 391.88500000000005 15.834999999999981 399.05600000000004 14.324999999999982 406.10300000000007 13.11499999999998 C 409.64200000000005 12.52599999999998 413.01900000000006 11.88099999999998 416.47600000000006 11.427999999999981 C 419.8980000000001 10.939999999999982 423.19000000000005 10.433999999999982 426.51700000000005 10.080999999999982 C 439.65500000000003 8.498999999999981 451.75800000000004 7.768999999999982 462.119 7.561999999999982 C 472.47400000000005 7.3489999999999815 481.081 7.6519999999999815 487.19500000000005 8.10499999999998 C 490.16700000000003 8.245999999999981 492.63500000000005 8.543999999999981 494.22800000000007 8.673999999999982 C 495.0250000000001 8.739999999999982 495.67100000000005 8.830999999999982 496.0900000000001 8.878999999999982 L 496.7270000000001 8.955999999999982 C 501.4960000000001 9.530999999999981 505.0970000000001 13.309999999999981 505.6470000000001 17.874999999999982 z" stroke-linecap="round" />
</g>
		<g transform="matrix(1.56 0 0 1.56 -151.97 156.14)"  >
<path style="stroke: none; stroke-width: 1; stroke-dasharray: none; stroke-linecap: butt; stroke-dashoffset: 0; stroke-linejoin: miter; stroke-miterlimit: 4; fill: rgb(255,71,62); fill-rule: nonzero; opacity: 1;" vector-effect="non-scaling-stroke"  transform=" translate(-157.43, -357.17)" d="M 243.106 271.497 L 243.689 273.074 C 244.01399999999998 274.055 244.452 275.466 244.754 277.038 C 245.47 280.293 245.707 284.255 244.41299999999998 287.701 C 243.77499999999998 289.43300000000005 242.59499999999997 290.877 241.48399999999998 292.62300000000005 L 237.79099999999997 298.17800000000005 L 228.92599999999996 311.49000000000007 C 225.4054276806434 316.7061690389559 221.85470156985193 321.90192268981036 218.2739999999997 327.07699999999994 C 214.28337078496511 332.8345072554111 210.24489761830188 338.5587054574696 206.15899999999974 344.2490000000002 L 199.64899999999997 353.2080000000001 L 192.88499999999996 362.29300000000006 C 188.29599999999996 368.3690000000001 183.59999999999997 374.50800000000004 178.82499999999996 380.56700000000006 C 174.0964453874244 386.6042758487214 169.30821053806926 392.59456965566335 164.46100000000004 398.5370000000001 C 159.67999999999995 404.422 154.99199999999996 410.22900000000004 150.37799999999996 415.77200000000005 L 143.60899999999995 423.96400000000006 C 141.36699999999996 426.61000000000007 139.32799999999995 429.35300000000007 136.95999999999995 431.6410000000001 C 134.60699999999994 433.9430000000001 131.89199999999994 435.75700000000006 128.77199999999996 437.01700000000005 C 125.67899999999996 438.30400000000003 122.29299999999996 439.15000000000003 119.01899999999996 439.94000000000005 C 112.8474252372904 441.4028581150579 106.60839822737461 442.5648956678007 100.32399999999998 443.4220000000001 C 97.41999999999996 443.8190000000001 94.64299999999996 444.1310000000001 92.01999999999995 444.3660000000001 C 89.41099999999996 444.6140000000001 86.88699999999996 444.7130000000001 84.67499999999995 444.87200000000007 C 82.44599999999996 445.0130000000001 80.31799999999996 445.0010000000001 78.53999999999995 445.0640000000001 C 76.73499999999994 445.1000000000001 75.10999999999994 445.04100000000005 73.83799999999995 445.0390000000001 C 72.53899999999994 445.0100000000001 71.50099999999995 444.9450000000001 70.82199999999995 444.9220000000001 L 69.75599999999994 444.8500000000001 L 69.68399999999994 443.7840000000001 C 69.66099999999994 443.10500000000013 69.59599999999995 442.0660000000001 69.56699999999994 440.7680000000001 C 69.56499999999994 439.4960000000001 69.50599999999993 437.87200000000007 69.54199999999993 436.0660000000001 C 69.60399999999993 434.2870000000001 69.59299999999993 432.1600000000001 69.73399999999992 429.9310000000001 C 69.89199999999992 427.7190000000001 69.99199999999992 425.1950000000001 70.23999999999992 422.58600000000007 C 70.47399999999992 419.96400000000006 70.78599999999993 417.1860000000001 71.18399999999993 414.2820000000001 C 72.04110433219928 407.99760177262544 73.2031418849421 401.75857476270966 74.66599999999993 395.5870000000001 C 75.45599999999993 392.3140000000001 76.30199999999992 388.9280000000001 77.58899999999993 385.8340000000001 C 78.84899999999993 382.71300000000014 80.66299999999993 379.99900000000014 82.96499999999993 377.64600000000013 C 85.25299999999993 375.2790000000001 87.99599999999994 373.2400000000001 90.64299999999993 370.9980000000001 L 98.83499999999992 364.2290000000001 C 104.37799999999993 359.6150000000001 110.18499999999992 354.9260000000001 116.06999999999992 350.1460000000001 C 121.94499999999992 345.35600000000005 127.96299999999992 340.5390000000001 134.0399999999999 335.7820000000001 C 140.0989999999999 331.0060000000001 146.23799999999991 326.3110000000001 152.3139999999999 321.7220000000001 L 161.39899999999992 314.9580000000001 L 170.35799999999992 308.4480000000001 C 176.048531595856 304.3624354446381 181.77272702783367 300.32396423229176 187.52999999999983 296.3330000000001 C 193.02999999999992 292.5220000000001 198.26899999999992 288.9580000000001 203.1169999999999 285.6810000000001 L 216.42899999999992 276.8160000000001 L 221.98399999999992 273.1230000000001 C 223.72899999999993 272.0120000000001 225.17299999999992 270.8320000000001 226.90599999999992 270.19400000000013 C 230.35199999999992 268.90000000000015 234.3139999999999 269.1370000000001 237.56899999999993 269.8530000000001 C 239.14099999999993 270.15500000000014 240.55199999999994 270.59300000000013 241.53299999999993 270.9180000000001 L 243.10599999999994 271.4970000000001 z" stroke-linecap="round" />
</g>
		<g transform="matrix(1.56 0 0 1.56 131.42 -127.24)"  >
<path style="stroke: none; stroke-width: 1; stroke-dasharray: none; stroke-linecap: butt; stroke-dashoffset: 0; stroke-linejoin: miter; stroke-miterlimit: 4; fill: rgb(43,59,71); fill-rule: nonzero; opacity: 1;" vector-effect="non-scaling-stroke"  transform=" translate(-338.8, -175.8)" d="M 362.113 206.66 C 362.113 236.577 337.86 260.83 307.943 260.83 C 278.02599999999995 260.83 253.77299999999997 236.577 253.77299999999997 206.65999999999997 C 253.77299999999997 176.74299999999994 278.02599999999995 152.48999999999995 307.943 152.48999999999995 C 337.86 152.48999999999995 362.113 176.74299999999994 362.113 206.65999999999997 z M 389.342 90.779 C 370.298 90.779 354.86 106.217 354.86 125.261 C 354.86 144.305 370.298 159.743 389.342 159.743 C 408.38599999999997 159.743 423.82399999999996 144.305 423.82399999999996 125.261 C 423.82399999999996 106.21699999999998 408.38599999999997 90.779 389.342 90.779 z" stroke-linecap="round" />
</g>
</g>
</g>
</svg>